<mxfile host="app.diagrams.net" agent="Mozilla/5.0 (Macintosh; Intel Mac OS X 10_15_7) AppleWebKit/605.1.15 (KHTML, like Gecko) Version/17.5 Safari/605.1.15" version="26.2.5">
  <diagram name="第 1 页" id="4BP5LGalQJ_J4Q13Kytv">
    <mxGraphModel dx="731" dy="627" grid="1" gridSize="10" guides="1" tooltips="1" connect="1" arrows="1" fold="1" page="1" pageScale="1" pageWidth="827" pageHeight="1169" math="0" shadow="0">
      <root>
        <mxCell id="0" />
        <mxCell id="1" parent="0" />
        <mxCell id="v1ZbwjhrTpeu1YLyPk_C-1" value="" style="ellipse;html=1;shape=endState;fillColor=#000000;strokeColor=#ff0000;fontSize=16;" vertex="1" parent="1">
          <mxGeometry x="640" y="270" width="30" height="30" as="geometry" />
        </mxCell>
        <mxCell id="v1ZbwjhrTpeu1YLyPk_C-4" style="edgeStyle=orthogonalEdgeStyle;rounded=0;orthogonalLoop=1;jettySize=auto;html=1;entryX=0;entryY=0.5;entryDx=0;entryDy=0;fontSize=16;" edge="1" parent="1" source="v1ZbwjhrTpeu1YLyPk_C-2" target="v1ZbwjhrTpeu1YLyPk_C-3">
          <mxGeometry relative="1" as="geometry" />
        </mxCell>
        <mxCell id="v1ZbwjhrTpeu1YLyPk_C-2" value="" style="ellipse;whiteSpace=wrap;html=1;aspect=fixed;fillColor=#000000;fontSize=16;" vertex="1" parent="1">
          <mxGeometry x="70" y="270" width="30" height="30" as="geometry" />
        </mxCell>
        <mxCell id="v1ZbwjhrTpeu1YLyPk_C-7" style="edgeStyle=orthogonalEdgeStyle;rounded=0;orthogonalLoop=1;jettySize=auto;html=1;entryX=0;entryY=0.5;entryDx=0;entryDy=0;fontSize=16;" edge="1" parent="1" source="v1ZbwjhrTpeu1YLyPk_C-3" target="v1ZbwjhrTpeu1YLyPk_C-6">
          <mxGeometry relative="1" as="geometry" />
        </mxCell>
        <mxCell id="v1ZbwjhrTpeu1YLyPk_C-13" style="rounded=0;orthogonalLoop=1;jettySize=auto;html=1;exitX=0.75;exitY=1;exitDx=0;exitDy=0;entryX=0.25;entryY=0;entryDx=0;entryDy=0;fontSize=16;" edge="1" parent="1" source="v1ZbwjhrTpeu1YLyPk_C-3" target="v1ZbwjhrTpeu1YLyPk_C-8">
          <mxGeometry relative="1" as="geometry" />
        </mxCell>
        <mxCell id="v1ZbwjhrTpeu1YLyPk_C-3" value="&lt;font&gt;Started&lt;/font&gt;" style="html=1;whiteSpace=wrap;fontSize=16;" vertex="1" parent="1">
          <mxGeometry x="220" y="260" width="100" height="50" as="geometry" />
        </mxCell>
        <mxCell id="v1ZbwjhrTpeu1YLyPk_C-10" style="edgeStyle=orthogonalEdgeStyle;rounded=0;orthogonalLoop=1;jettySize=auto;html=1;entryX=0;entryY=0.5;entryDx=0;entryDy=0;fontSize=16;" edge="1" parent="1" source="v1ZbwjhrTpeu1YLyPk_C-6" target="v1ZbwjhrTpeu1YLyPk_C-1">
          <mxGeometry relative="1" as="geometry" />
        </mxCell>
        <mxCell id="v1ZbwjhrTpeu1YLyPk_C-6" value="&lt;font&gt;Stopped&lt;/font&gt;" style="html=1;whiteSpace=wrap;fontSize=16;" vertex="1" parent="1">
          <mxGeometry x="430" y="260" width="100" height="50" as="geometry" />
        </mxCell>
        <mxCell id="v1ZbwjhrTpeu1YLyPk_C-12" style="edgeStyle=orthogonalEdgeStyle;rounded=0;orthogonalLoop=1;jettySize=auto;html=1;entryX=1;entryY=0.5;entryDx=0;entryDy=0;fontSize=16;" edge="1" parent="1" source="v1ZbwjhrTpeu1YLyPk_C-8" target="v1ZbwjhrTpeu1YLyPk_C-9">
          <mxGeometry relative="1" as="geometry" />
        </mxCell>
        <mxCell id="v1ZbwjhrTpeu1YLyPk_C-14" style="rounded=0;orthogonalLoop=1;jettySize=auto;html=1;exitX=0.5;exitY=0;exitDx=0;exitDy=0;entryX=1;entryY=1;entryDx=0;entryDy=0;fontSize=16;" edge="1" parent="1" source="v1ZbwjhrTpeu1YLyPk_C-8" target="v1ZbwjhrTpeu1YLyPk_C-3">
          <mxGeometry relative="1" as="geometry" />
        </mxCell>
        <mxCell id="v1ZbwjhrTpeu1YLyPk_C-15" style="rounded=0;orthogonalLoop=1;jettySize=auto;html=1;exitX=0.75;exitY=0;exitDx=0;exitDy=0;fontSize=16;" edge="1" parent="1" source="v1ZbwjhrTpeu1YLyPk_C-8" target="v1ZbwjhrTpeu1YLyPk_C-6">
          <mxGeometry relative="1" as="geometry" />
        </mxCell>
        <mxCell id="v1ZbwjhrTpeu1YLyPk_C-8" value="&lt;font&gt;Injured&lt;/font&gt;" style="html=1;whiteSpace=wrap;fontSize=16;" vertex="1" parent="1">
          <mxGeometry x="330" y="410" width="100" height="50" as="geometry" />
        </mxCell>
        <mxCell id="v1ZbwjhrTpeu1YLyPk_C-11" style="rounded=0;orthogonalLoop=1;jettySize=auto;html=1;entryX=0.25;entryY=1;entryDx=0;entryDy=0;fontSize=16;" edge="1" parent="1" source="v1ZbwjhrTpeu1YLyPk_C-9" target="v1ZbwjhrTpeu1YLyPk_C-3">
          <mxGeometry relative="1" as="geometry" />
        </mxCell>
        <mxCell id="v1ZbwjhrTpeu1YLyPk_C-9" value="&lt;font&gt;Restarting&lt;/font&gt;" style="html=1;whiteSpace=wrap;fontSize=16;" vertex="1" parent="1">
          <mxGeometry x="120" y="410" width="100" height="50" as="geometry" />
        </mxCell>
        <mxCell id="v1ZbwjhrTpeu1YLyPk_C-16" value="preStart" style="text;html=1;align=center;verticalAlign=middle;whiteSpace=wrap;rounded=0;fontSize=16;" vertex="1" parent="1">
          <mxGeometry x="123" y="250" width="60" height="30" as="geometry" />
        </mxCell>
        <mxCell id="v1ZbwjhrTpeu1YLyPk_C-17" value="stop" style="text;html=1;align=center;verticalAlign=middle;whiteSpace=wrap;rounded=0;fontSize=16;" vertex="1" parent="1">
          <mxGeometry x="345" y="250" width="60" height="30" as="geometry" />
        </mxCell>
        <mxCell id="v1ZbwjhrTpeu1YLyPk_C-18" value="Resume" style="text;html=1;align=center;verticalAlign=middle;whiteSpace=wrap;rounded=0;fontSize=16;" vertex="1" parent="1">
          <mxGeometry x="350" y="330" width="60" height="30" as="geometry" />
        </mxCell>
        <mxCell id="v1ZbwjhrTpeu1YLyPk_C-19" value="Terminate" style="text;html=1;align=center;verticalAlign=middle;whiteSpace=wrap;rounded=0;fontSize=16;" vertex="1" parent="1">
          <mxGeometry x="444" y="351" width="60" height="30" as="geometry" />
        </mxCell>
        <mxCell id="v1ZbwjhrTpeu1YLyPk_C-20" value="throw" style="text;html=1;align=center;verticalAlign=middle;whiteSpace=wrap;rounded=0;fontSize=16;" vertex="1" parent="1">
          <mxGeometry x="270" y="360" width="60" height="30" as="geometry" />
        </mxCell>
        <mxCell id="v1ZbwjhrTpeu1YLyPk_C-21" value="preRestart" style="text;html=1;align=center;verticalAlign=middle;whiteSpace=wrap;rounded=0;fontSize=16;" vertex="1" parent="1">
          <mxGeometry x="250" y="400" width="60" height="30" as="geometry" />
        </mxCell>
        <mxCell id="v1ZbwjhrTpeu1YLyPk_C-22" value="postRestart" style="text;html=1;align=center;verticalAlign=middle;whiteSpace=wrap;rounded=0;fontSize=16;" vertex="1" parent="1">
          <mxGeometry x="140" y="340" width="60" height="30" as="geometry" />
        </mxCell>
        <mxCell id="v1ZbwjhrTpeu1YLyPk_C-23" value="postStop" style="text;html=1;align=center;verticalAlign=middle;whiteSpace=wrap;rounded=0;fontSize=16;" vertex="1" parent="1">
          <mxGeometry x="559" y="250" width="60" height="30" as="geometry" />
        </mxCell>
      </root>
    </mxGraphModel>
  </diagram>
</mxfile>
